<?xml version="1.0" encoding="UTF-8"?>
<!DOCTYPE svg PUBLIC "-//W3C//DTD SVG 1.1//EN" "http://www.w3.org/Graphics/SVG/1.1/DTD/svg11.dtd">
<svg version="1.2" width="33.87mm" height="33.87mm" viewBox="0 0 3387 3387" preserveAspectRatio="xMidYMid" fill-rule="evenodd" stroke-width="28.222" stroke-linejoin="round" xmlns="http://www.w3.org/2000/svg" xmlns:ooo="http://xml.openoffice.org/svg/export" xmlns:xlink="http://www.w3.org/1999/xlink" xmlns:presentation="http://sun.com/xmlns/staroffice/presentation" xmlns:smil="http://www.w3.org/2001/SMIL20/" xmlns:anim="urn:oasis:names:tc:opendocument:xmlns:animation:1.0" xml:space="preserve">
 <defs class="ClipPathGroup">
  <clipPath id="presentation_clip_path" clipPathUnits="userSpaceOnUse">
   <rect x="0" y="0" width="3387" height="3387"/>
  </clipPath>
  <clipPath id="presentation_clip_path_shrink" clipPathUnits="userSpaceOnUse">
   <rect x="3" y="3" width="3381" height="3381"/>
  </clipPath>
 </defs>
 <defs class="TextShapeIndex">
  <g ooo:slide="id1" ooo:id-list="id3"/>
 </defs>
 <defs class="EmbeddedBulletChars">
  <g id="bullet-char-template-57356" transform="scale(0.00048828125,-0.00048828125)">
   <path d="M 580,1141 L 1163,571 580,0 -4,571 580,1141 Z"/>
  </g>
  <g id="bullet-char-template-57354" transform="scale(0.00048828125,-0.00048828125)">
   <path d="M 8,1128 L 1137,1128 1137,0 8,0 8,1128 Z"/>
  </g>
  <g id="bullet-char-template-10146" transform="scale(0.00048828125,-0.00048828125)">
   <path d="M 174,0 L 602,739 174,1481 1456,739 174,0 Z M 1358,739 L 309,1346 659,739 1358,739 Z"/>
  </g>
  <g id="bullet-char-template-10132" transform="scale(0.00048828125,-0.00048828125)">
   <path d="M 2015,739 L 1276,0 717,0 1260,543 174,543 174,936 1260,936 717,1481 1274,1481 2015,739 Z"/>
  </g>
  <g id="bullet-char-template-10007" transform="scale(0.00048828125,-0.00048828125)">
   <path d="M 0,-2 C -7,14 -16,27 -25,37 L 356,567 C 262,823 215,952 215,954 215,979 228,992 255,992 264,992 276,990 289,987 310,991 331,999 354,1012 L 381,999 492,748 772,1049 836,1024 860,1049 C 881,1039 901,1025 922,1006 886,937 835,863 770,784 769,783 710,716 594,584 L 774,223 C 774,196 753,168 711,139 L 727,119 C 717,90 699,76 672,76 641,76 570,178 457,381 L 164,-76 C 142,-110 111,-127 72,-127 30,-127 9,-110 8,-76 1,-67 -2,-52 -2,-32 -2,-23 -1,-13 0,-2 Z"/>
  </g>
  <g id="bullet-char-template-10004" transform="scale(0.00048828125,-0.00048828125)">
   <path d="M 285,-33 C 182,-33 111,30 74,156 52,228 41,333 41,471 41,549 55,616 82,672 116,743 169,778 240,778 293,778 328,747 346,684 L 369,508 C 377,444 397,411 428,410 L 1163,1116 C 1174,1127 1196,1133 1229,1133 1271,1133 1292,1118 1292,1087 L 1292,965 C 1292,929 1282,901 1262,881 L 442,47 C 390,-6 338,-33 285,-33 Z"/>
  </g>
  <g id="bullet-char-template-9679" transform="scale(0.00048828125,-0.00048828125)">
   <path d="M 813,0 C 632,0 489,54 383,161 276,268 223,411 223,592 223,773 276,916 383,1023 489,1130 632,1184 813,1184 992,1184 1136,1130 1245,1023 1353,916 1407,772 1407,592 1407,412 1353,268 1245,161 1136,54 992,0 813,0 Z"/>
  </g>
  <g id="bullet-char-template-8226" transform="scale(0.00048828125,-0.00048828125)">
   <path d="M 346,457 C 273,457 209,483 155,535 101,586 74,649 74,723 74,796 101,859 155,911 209,963 273,989 346,989 419,989 480,963 531,910 582,859 608,796 608,723 608,648 583,586 532,535 482,483 420,457 346,457 Z"/>
  </g>
  <g id="bullet-char-template-8211" transform="scale(0.00048828125,-0.00048828125)">
   <path d="M -4,459 L 1135,459 1135,606 -4,606 -4,459 Z"/>
  </g>
  <g id="bullet-char-template-61548" transform="scale(0.00048828125,-0.00048828125)">
   <path d="M 173,740 C 173,903 231,1043 346,1159 462,1274 601,1332 765,1332 928,1332 1067,1274 1183,1159 1299,1043 1357,903 1357,740 1357,577 1299,437 1183,322 1067,206 928,148 765,148 601,148 462,206 346,322 231,437 173,577 173,740 Z"/>
  </g>
 </defs>
 <defs class="TextEmbeddedBitmaps"/>
 <g>
  <g id="id2" class="Master_Slide">
   <g id="bg-id2" class="Background"/>
   <g id="bo-id2" class="BackgroundObjects"/>
  </g>
 </g>
 <g class="SlideGroup">
  <g>
   <g id="container-id1">
    <g id="id1" class="Slide" clip-path="url(#presentation_clip_path)">
     <g class="Page">
      <g class="Graphic">
       <title>Dusk Part 1
       </title>
       <g id="id3">
        <rect class="BoundingBox" stroke="none" fill="none" x="0" y="0" width="3387" height="3387"/>
        <defs>
         <clipPath id="clip_path_1" clipPathUnits="userSpaceOnUse">
          <path d="M 0,0 L 3386,0 3386,3386 0,3386 0,0 Z"/>
         </clipPath>
        </defs>
        <g clip-path="url(#clip_path_1)">
         <path fill="rgb(250,239,222)" stroke="none" d="M 3016,2592 L 317,2592 317,2592 C 288,2592 263,2586 238,2571 213,2557 195,2538 180,2513 165,2488 159,2463 159,2434 L 159,423 159,423 C 159,394 165,369 180,344 195,319 213,300 238,286 263,271 288,265 317,265 L 1111,265 1587,582 2857,582 2857,582 C 2886,582 2911,589 2936,603 2962,618 2980,636 2994,661 3009,687 3016,711 3016,741 L 3016,741 3016,2592 Z"/>
         <path fill="rgb(255,247,240)" stroke="none" d="M 1164,265 L 1534,635 159,635 159,423 C 159,394 165,369 180,344 195,319 213,300 238,286 263,271 288,265 317,265 L 1164,265 Z"/>
         <path fill="rgb(205,161,167)" stroke="none" d="M 3016,794 L 3227,794 3227,794 C 3247,794 3263,798 3280,808 3297,818 3309,830 3319,847 3329,863 3333,880 3333,899 L 3333,899 3333,2434 3333,2434 C 3333,2463 3326,2488 3312,2513 3297,2538 3279,2557 3254,2571 3228,2586 3204,2592 3174,2592 L 3016,2592 3016,794 3016,794 Z"/>
         <path fill="rgb(239,216,190)" stroke="none" d="M 159,2063 L 3016,2063 3016,2592 317,2592 317,2592 C 288,2592 263,2586 238,2571 213,2557 195,2538 180,2513 165,2488 159,2463 159,2434 L 159,2063 159,2063 Z"/>
         <path fill="rgb(141,108,159)" stroke="none" d="M 3227,741 L 3069,741 3069,688 C 3069,659 3062,634 3047,608 3033,583 3015,565 2989,550 2964,536 2939,529 2910,529 L 1572,529 C 1543,529 1518,522 1493,508 1480,501 1470,493 1460,483 L 1263,288 C 1246,271 1230,259 1209,247 1167,223 1126,212 1077,212 L 265,212 C 235,212 210,218 185,233 160,247 142,266 127,291 112,316 106,341 106,370 L 106,2434 C 106,2473 115,2506 134,2540 154,2573 178,2597 212,2617 245,2636 278,2645 317,2645 L 3174,2645 C 3213,2645 3246,2636 3280,2617 3314,2597 3338,2573 3358,2540 3377,2506 3386,2473 3386,2434 L 3386,899 C 3386,870 3379,845 3365,820 3350,795 3332,777 3307,762 3281,747 3257,741 3227,741 Z M 317,2540 C 298,2540 281,2535 265,2525 248,2516 236,2503 226,2487 216,2470 212,2453 212,2434 L 212,2116 1323,2116 C 1332,2116 1341,2114 1349,2109 1358,2104 1364,2098 1368,2090 1373,2081 1376,2073 1376,2063 1376,2054 1373,2045 1368,2037 1364,2028 1358,2022 1349,2018 1341,2013 1332,2010 1323,2010 L 212,2010 212,370 C 212,361 214,352 219,344 224,335 230,329 238,325 247,320 255,317 265,317 L 1077,317 C 1106,317 1131,324 1156,339 1169,346 1179,353 1189,363 L 1386,559 C 1403,575 1419,588 1440,599 1482,624 1523,635 1572,635 L 2910,635 C 2920,635 2928,637 2936,642 2945,647 2951,653 2956,661 2961,670 2963,678 2963,688 L 2963,2010 2063,2010 C 2054,2010 2045,2013 2037,2018 2028,2022 2022,2028 2018,2037 2013,2045 2010,2054 2010,2063 2010,2073 2013,2081 2018,2090 2022,2098 2028,2104 2037,2109 2045,2114 2054,2116 2063,2116 L 2963,2116 2963,2434 C 2964,2469 2973,2499 2991,2530 2992,2534 2994,2536 2996,2540 L 317,2540 Z M 3280,2434 C 3280,2453 3276,2470 3266,2487 3256,2503 3244,2516 3227,2525 3210,2535 3194,2540 3174,2540 3157,2538 3143,2533 3128,2524 3109,2513 3095,2499 3084,2480 3075,2465 3070,2451 3069,2434 L 3069,847 3227,847 C 3237,847 3245,849 3254,854 3262,858 3268,865 3273,873 3278,881 3280,890 3280,899 L 3280,2434 Z"/>
         <path fill="rgb(141,108,159)" stroke="none" d="M 317,2222 L 317,2222 C 308,2222 299,2224 291,2229 283,2234 276,2240 272,2249 267,2257 265,2265 265,2275 L 265,2381 265,2381 C 265,2391 267,2399 272,2407 276,2416 283,2422 291,2427 299,2431 308,2434 317,2434 327,2434 335,2431 344,2427 352,2422 358,2416 363,2407 368,2399 370,2391 370,2381 L 370,2275 370,2275 370,2275 C 370,2265 368,2257 363,2249 358,2240 352,2234 344,2229 335,2224 327,2222 317,2222 L 317,2222 Z"/>
         <path fill="rgb(141,108,159)" stroke="none" d="M 582,2222 L 582,2222 C 572,2222 564,2224 556,2229 547,2234 541,2240 536,2249 531,2257 529,2265 529,2275 L 529,2381 529,2381 C 529,2391 531,2399 536,2407 541,2416 547,2422 556,2427 564,2431 572,2434 582,2434 592,2434 600,2431 608,2427 617,2422 623,2416 628,2407 633,2399 635,2391 635,2381 L 635,2275 635,2275 635,2275 C 635,2265 633,2257 628,2249 623,2240 617,2234 608,2229 600,2224 592,2222 582,2222 L 582,2222 Z"/>
         <path fill="rgb(141,108,159)" stroke="none" d="M 847,2222 L 847,2222 C 837,2222 828,2224 820,2229 812,2234 806,2240 801,2249 796,2257 794,2265 794,2275 L 794,2381 794,2381 C 794,2391 796,2399 801,2407 806,2416 812,2422 820,2427 828,2431 837,2434 847,2434 856,2434 865,2431 873,2427 881,2422 887,2416 892,2407 897,2399 899,2391 899,2381 L 899,2275 899,2275 899,2275 C 899,2265 897,2257 892,2249 887,2240 881,2234 873,2229 865,2224 856,2222 847,2222 L 847,2222 Z"/>
         <path fill="rgb(141,108,159)" stroke="none" d="M 1111,2222 L 1111,2222 C 1101,2222 1093,2224 1085,2229 1076,2234 1070,2240 1065,2249 1060,2257 1058,2265 1058,2275 L 1058,2381 1058,2381 C 1058,2391 1060,2399 1065,2407 1070,2416 1076,2422 1085,2427 1093,2431 1101,2434 1111,2434 1121,2434 1129,2431 1137,2427 1146,2422 1152,2416 1157,2407 1162,2399 1164,2391 1164,2381 L 1164,2275 1164,2275 1164,2275 C 1164,2265 1162,2257 1157,2249 1152,2240 1146,2234 1137,2229 1129,2224 1121,2222 1111,2222 L 1111,2222 Z"/>
         <path fill="rgb(141,108,159)" stroke="none" d="M 1376,2222 L 1376,2222 C 1366,2222 1358,2224 1349,2229 1341,2234 1335,2240 1330,2249 1325,2257 1323,2265 1323,2275 L 1323,2381 1323,2381 C 1323,2391 1325,2399 1330,2407 1335,2416 1341,2422 1349,2427 1358,2431 1366,2434 1376,2434 1385,2434 1394,2431 1402,2427 1410,2422 1417,2416 1421,2407 1426,2399 1428,2391 1428,2381 L 1428,2275 1428,2275 1428,2275 C 1428,2265 1426,2257 1421,2249 1417,2240 1410,2234 1402,2229 1394,2224 1385,2222 1376,2222 L 1376,2222 Z"/>
         <path fill="rgb(141,108,159)" stroke="none" d="M 2010,2222 L 2010,2222 C 2001,2222 1992,2224 1984,2229 1976,2234 1969,2240 1965,2249 1960,2257 1958,2265 1958,2275 L 1958,2381 1958,2381 C 1958,2391 1960,2399 1965,2407 1969,2416 1976,2422 1984,2427 1992,2431 2001,2434 2010,2434 2020,2434 2028,2431 2037,2427 2045,2422 2051,2416 2056,2407 2061,2399 2063,2391 2063,2381 L 2063,2275 2063,2275 2063,2275 C 2063,2265 2061,2257 2056,2249 2051,2240 2045,2234 2037,2229 2028,2224 2020,2222 2010,2222 L 2010,2222 Z"/>
         <path fill="rgb(141,108,159)" stroke="none" d="M 2275,2222 L 2275,2222 C 2265,2222 2257,2224 2249,2229 2240,2234 2234,2240 2229,2249 2224,2257 2222,2265 2222,2275 L 2222,2381 2222,2381 C 2222,2391 2224,2399 2229,2407 2234,2416 2240,2422 2249,2427 2257,2431 2265,2434 2275,2434 2285,2434 2293,2431 2301,2427 2310,2422 2316,2416 2321,2407 2326,2399 2328,2391 2328,2381 L 2328,2275 2328,2275 2328,2275 C 2328,2265 2326,2257 2321,2249 2316,2240 2310,2234 2301,2229 2293,2224 2285,2222 2275,2222 L 2275,2222 Z"/>
         <path fill="rgb(141,108,159)" stroke="none" d="M 2540,2222 L 2540,2222 C 2530,2222 2521,2224 2513,2229 2505,2234 2499,2240 2494,2249 2489,2257 2487,2265 2487,2275 L 2487,2381 2487,2381 C 2487,2391 2489,2399 2494,2407 2499,2416 2505,2422 2513,2427 2521,2431 2530,2434 2540,2434 2549,2434 2558,2431 2566,2427 2574,2422 2580,2416 2585,2407 2590,2399 2592,2391 2592,2381 L 2592,2275 2592,2275 2592,2275 C 2592,2265 2590,2257 2585,2249 2580,2240 2574,2234 2566,2229 2558,2224 2549,2222 2540,2222 L 2540,2222 Z"/>
         <path fill="rgb(141,108,159)" stroke="none" d="M 2804,2222 L 2804,2222 C 2794,2222 2786,2224 2778,2229 2769,2234 2763,2240 2758,2249 2753,2257 2751,2265 2751,2275 L 2751,2381 2751,2381 C 2751,2391 2753,2399 2758,2407 2763,2416 2769,2422 2778,2427 2786,2431 2794,2434 2804,2434 2814,2434 2822,2431 2830,2427 2839,2422 2845,2416 2850,2407 2855,2399 2857,2391 2857,2381 L 2857,2275 2857,2275 2857,2275 C 2857,2265 2855,2257 2850,2249 2845,2240 2839,2234 2830,2229 2822,2224 2814,2222 2804,2222 L 2804,2222 Z"/>
         <path fill="rgb(194,205,231)" stroke="none" d="M 1852,1428 L 1852,2751 2063,2540 2275,2751 1693,3333 1111,2751 1323,2540 1534,2751 1534,1428 1852,1428 1852,1428 Z"/>
         <path fill="rgb(141,108,159)" stroke="none" d="M 2313,2789 C 2316,2785 2318,2782 2321,2778 2326,2769 2328,2761 2328,2751 2328,2742 2326,2733 2321,2725 2318,2721 2316,2718 2313,2714 L 2101,2502 C 2097,2499 2094,2497 2090,2494 2082,2489 2073,2487 2064,2487 2054,2487 2046,2489 2037,2494 2033,2497 2030,2499 2026,2502 L 1905,2624 1905,1428 C 1905,1419 1902,1410 1898,1402 1893,1394 1887,1388 1878,1383 1870,1378 1861,1376 1852,1376 L 1534,1376 C 1525,1376 1516,1378 1508,1383 1499,1388 1493,1394 1488,1402 1484,1410 1481,1419 1481,1428 L 1481,2624 1360,2502 C 1357,2499 1354,2497 1349,2494 1341,2489 1333,2487 1323,2487 1313,2487 1305,2489 1296,2494 1292,2497 1289,2499 1286,2502 L 1074,2714 C 1071,2718 1068,2721 1066,2725 1061,2733 1059,2742 1059,2751 1059,2761 1061,2769 1066,2778 1068,2782 1071,2785 1074,2789 L 1656,3371 C 1659,3374 1663,3377 1667,3379 1675,3384 1684,3386 1693,3386 1703,3386 1711,3384 1720,3379 1724,3377 1727,3374 1731,3371 L 2313,2789 Z M 1186,2751 L 1323,2614 1497,2788 C 1500,2792 1504,2794 1508,2797 1516,2802 1525,2804 1534,2804 1544,2804 1552,2802 1561,2797 1569,2792 1575,2786 1580,2777 1585,2769 1587,2761 1587,2751 L 1587,1481 1799,1481 1799,2751 C 1799,2751 1799,2751 1799,2751 1799,2761 1801,2769 1806,2778 1811,2786 1817,2792 1825,2797 1834,2802 1842,2804 1852,2804 1861,2804 1870,2802 1878,2797 1882,2795 1886,2792 1889,2789 L 2063,2614 2200,2751 1693,3258 1186,2751 Z"/>
        </g>
       </g>
      </g>
     </g>
    </g>
   </g>
  </g>
 </g>
</svg>