<?xml version="1.0" encoding="UTF-8"?>
<!DOCTYPE svg PUBLIC "-//W3C//DTD SVG 1.1//EN" "http://www.w3.org/Graphics/SVG/1.1/DTD/svg11.dtd">
<svg version="1.2" width="34.13mm" height="34.13mm" viewBox="0 0 3413 3413" preserveAspectRatio="xMidYMid" fill-rule="evenodd" stroke-width="28.222" stroke-linejoin="round" xmlns="http://www.w3.org/2000/svg" xmlns:ooo="http://xml.openoffice.org/svg/export" xmlns:xlink="http://www.w3.org/1999/xlink" xmlns:presentation="http://sun.com/xmlns/staroffice/presentation" xmlns:smil="http://www.w3.org/2001/SMIL20/" xmlns:anim="urn:oasis:names:tc:opendocument:xmlns:animation:1.0" xml:space="preserve">
 <defs class="ClipPathGroup">
  <clipPath id="presentation_clip_path" clipPathUnits="userSpaceOnUse">
   <rect x="0" y="0" width="3413" height="3413"/>
  </clipPath>
  <clipPath id="presentation_clip_path_shrink" clipPathUnits="userSpaceOnUse">
   <rect x="3" y="3" width="3407" height="3407"/>
  </clipPath>
 </defs>
 <defs class="TextShapeIndex">
  <g ooo:slide="id1" ooo:id-list="id3"/>
 </defs>
 <defs class="EmbeddedBulletChars">
  <g id="bullet-char-template-57356" transform="scale(0.00048828125,-0.00048828125)">
   <path d="M 580,1141 L 1163,571 580,0 -4,571 580,1141 Z"/>
  </g>
  <g id="bullet-char-template-57354" transform="scale(0.00048828125,-0.00048828125)">
   <path d="M 8,1128 L 1137,1128 1137,0 8,0 8,1128 Z"/>
  </g>
  <g id="bullet-char-template-10146" transform="scale(0.00048828125,-0.00048828125)">
   <path d="M 174,0 L 602,739 174,1481 1456,739 174,0 Z M 1358,739 L 309,1346 659,739 1358,739 Z"/>
  </g>
  <g id="bullet-char-template-10132" transform="scale(0.00048828125,-0.00048828125)">
   <path d="M 2015,739 L 1276,0 717,0 1260,543 174,543 174,936 1260,936 717,1481 1274,1481 2015,739 Z"/>
  </g>
  <g id="bullet-char-template-10007" transform="scale(0.00048828125,-0.00048828125)">
   <path d="M 0,-2 C -7,14 -16,27 -25,37 L 356,567 C 262,823 215,952 215,954 215,979 228,992 255,992 264,992 276,990 289,987 310,991 331,999 354,1012 L 381,999 492,748 772,1049 836,1024 860,1049 C 881,1039 901,1025 922,1006 886,937 835,863 770,784 769,783 710,716 594,584 L 774,223 C 774,196 753,168 711,139 L 727,119 C 717,90 699,76 672,76 641,76 570,178 457,381 L 164,-76 C 142,-110 111,-127 72,-127 30,-127 9,-110 8,-76 1,-67 -2,-52 -2,-32 -2,-23 -1,-13 0,-2 Z"/>
  </g>
  <g id="bullet-char-template-10004" transform="scale(0.00048828125,-0.00048828125)">
   <path d="M 285,-33 C 182,-33 111,30 74,156 52,228 41,333 41,471 41,549 55,616 82,672 116,743 169,778 240,778 293,778 328,747 346,684 L 369,508 C 377,444 397,411 428,410 L 1163,1116 C 1174,1127 1196,1133 1229,1133 1271,1133 1292,1118 1292,1087 L 1292,965 C 1292,929 1282,901 1262,881 L 442,47 C 390,-6 338,-33 285,-33 Z"/>
  </g>
  <g id="bullet-char-template-9679" transform="scale(0.00048828125,-0.00048828125)">
   <path d="M 813,0 C 632,0 489,54 383,161 276,268 223,411 223,592 223,773 276,916 383,1023 489,1130 632,1184 813,1184 992,1184 1136,1130 1245,1023 1353,916 1407,772 1407,592 1407,412 1353,268 1245,161 1136,54 992,0 813,0 Z"/>
  </g>
  <g id="bullet-char-template-8226" transform="scale(0.00048828125,-0.00048828125)">
   <path d="M 346,457 C 273,457 209,483 155,535 101,586 74,649 74,723 74,796 101,859 155,911 209,963 273,989 346,989 419,989 480,963 531,910 582,859 608,796 608,723 608,648 583,586 532,535 482,483 420,457 346,457 Z"/>
  </g>
  <g id="bullet-char-template-8211" transform="scale(0.00048828125,-0.00048828125)">
   <path d="M -4,459 L 1135,459 1135,606 -4,606 -4,459 Z"/>
  </g>
  <g id="bullet-char-template-61548" transform="scale(0.00048828125,-0.00048828125)">
   <path d="M 173,740 C 173,903 231,1043 346,1159 462,1274 601,1332 765,1332 928,1332 1067,1274 1183,1159 1299,1043 1357,903 1357,740 1357,577 1299,437 1183,322 1067,206 928,148 765,148 601,148 462,206 346,322 231,437 173,577 173,740 Z"/>
  </g>
 </defs>
 <defs class="TextEmbeddedBitmaps"/>
 <g>
  <g id="id2" class="Master_Slide">
   <g id="bg-id2" class="Background"/>
   <g id="bo-id2" class="BackgroundObjects"/>
  </g>
 </g>
 <g class="SlideGroup">
  <g>
   <g id="container-id1">
    <g id="id1" class="Slide" clip-path="url(#presentation_clip_path)">
     <g class="Page">
      <g class="Graphic">
       <title>Dusk Part 1
       </title>
       <g id="id3">
        <rect class="BoundingBox" stroke="none" fill="none" x="0" y="0" width="3413" height="3413"/>
        <path fill="rgb(133,203,248)" stroke="none" d="M 3134,1653 C 3134,1926 3072,2158 2936,2394 2800,2630 2630,2800 2394,2936 2158,3072 1926,3134 1653,3134 1380,3134 1149,3072 913,2936 676,2800 507,2630 370,2394 234,2158 172,1926 172,1653 172,1380 234,1149 370,913 507,676 676,507 913,370 1149,234 1380,172 1653,172 1926,172 2158,234 2394,370 2630,507 2800,676 2936,913 3072,1149 3134,1380 3134,1653 L 3134,1653 Z"/>
        <path fill="rgb(249,227,174)" stroke="none" d="M 913,370 C 676,507 507,676 370,913 234,1149 172,1380 172,1653 172,1926 234,2158 370,2394 507,2630 676,2800 913,2936 1149,3072 1380,3134 1653,3134 1926,3134 2158,3072 2394,2936 2630,2800 2800,2630 2936,2394 3072,2158 3134,1926 3134,1653 3134,1380 3072,1149 2936,913 2800,676 2630,507 2394,370 2158,234 1926,172 1653,172 1380,172 1149,234 913,370 Z M 1653,2817 C 1439,2817 1257,2768 1071,2661 885,2554 752,2421 645,2235 538,2049 489,1867 489,1653 489,1439 538,1257 645,1071 752,886 885,752 1071,645 1257,538 1439,489 1653,489 1867,489 2049,538 2235,645 2319,694 2385,743 2456,810 L 2492,846 C 2505,860 2519,874 2531,889 2583,949 2622,1003 2661,1071 2768,1257 2817,1439 2817,1653 2817,1867 2768,2049 2661,2235 2554,2421 2421,2554 2235,2661 2050,2768 1867,2817 1653,2817 1653,2817 1653,2817 1653,2817 1653,2817 1653,2817 1653,2817 Z"/>
        <path fill="rgb(246,211,151)" stroke="none" d="M 1653,2817 C 1439,2817 1257,2768 1071,2661 886,2554 752,2421 645,2235 538,2049 489,1867 489,1653 L 402,1653 C 401,1653 401,1653 401,1653 362,1653 329,1662 295,1681 261,1701 237,1725 218,1759 198,1793 189,1826 189,1865 189,1878 190,1889 193,1902 224,2085 278,2235 370,2395 506,2631 676,2801 912,2937 1148,3073 1380,3136 1653,3136 1926,3136 2157,3073 2393,2937 2630,2801 2799,2631 2936,2395 3028,2235 3082,2085 3113,1902 3115,1889 3116,1878 3116,1865 3116,1826 3108,1793 3088,1759 3069,1725 3044,1701 3011,1681 2977,1662 2944,1653 2905,1653 2905,1653 2905,1653 2905,1653 L 2817,1653 C 2817,1867 2768,2049 2661,2235 2554,2421 2421,2554 2235,2661 2049,2768 1867,2817 1653,2817 Z"/>
        <path fill="rgb(141,108,159)" stroke="none" d="M 886,325 C 641,466 466,641 325,886 183,1131 119,1371 119,1653 119,1936 183,2176 325,2420 466,2665 641,2840 886,2982 1131,3123 1371,3187 1653,3187 1936,3187 2176,3123 2420,2982 2665,2840 2840,2665 2982,2420 3123,2176 3187,1936 3187,1653 3187,1371 3123,1131 2982,886 2840,641 2665,466 2420,325 2176,183 1936,119 1653,119 1371,119 1131,183 886,325 Z M 1653,3081 C 1390,3081 1167,3021 939,2890 711,2759 548,2595 416,2367 285,2140 225,1916 225,1653 225,1390 285,1167 416,939 548,711 711,548 939,416 1167,285 1390,225 1653,225 1916,225 2140,285 2367,416 2595,548 2759,711 2890,939 3021,1167 3081,1390 3081,1653 3081,1916 3021,2140 2890,2367 2759,2595 2595,2759 2367,2890 2140,3021 1916,3081 1653,3081 Z"/>
        <path fill="rgb(250,239,222)" stroke="none" d="M 1759,2235 C 1759,2254 1754,2271 1745,2288 1735,2305 1723,2317 1706,2327 1689,2336 1673,2341 1653,2341 1634,2341 1617,2336 1600,2327 1583,2317 1571,2305 1561,2288 1552,2271 1547,2254 1547,2235 1547,2216 1552,2199 1561,2182 1571,2165 1583,2153 1600,2143 1617,2134 1634,2129 1653,2129 1673,2129 1689,2134 1706,2143 1723,2153 1735,2165 1745,2182 1754,2199 1759,2216 1759,2235 L 1759,2235 Z"/>
        <path fill="rgb(250,239,222)" stroke="none" d="M 648,1653 L 648,1759 648,1759 C 648,1769 650,1777 655,1785 660,1794 666,1800 674,1805 683,1810 691,1812 701,1812 711,1812 719,1810 727,1805 736,1800 742,1794 747,1785 752,1777 754,1769 754,1759 L 754,1653 754,1653 754,1653 C 754,1643 752,1635 747,1627 742,1618 736,1612 727,1607 719,1602 711,1600 701,1600 691,1600 683,1602 674,1607 666,1612 660,1618 655,1627 650,1635 648,1643 648,1653 L 648,1653 Z"/>
        <path fill="rgb(250,239,222)" stroke="none" d="M 913,1653 L 913,1759 913,1759 C 913,1769 915,1777 920,1785 924,1794 931,1800 939,1805 947,1810 956,1812 965,1812 975,1812 983,1810 992,1805 1000,1800 1006,1794 1011,1785 1016,1777 1018,1769 1018,1759 L 1018,1653 1018,1653 1018,1653 C 1018,1643 1016,1635 1011,1627 1006,1618 1000,1612 992,1607 983,1602 975,1600 965,1600 956,1600 947,1602 939,1607 931,1612 924,1618 920,1627 915,1635 913,1643 913,1653 L 913,1653 Z"/>
        <path fill="rgb(250,239,222)" stroke="none" d="M 1177,1653 L 1177,1759 1177,1759 C 1177,1769 1179,1777 1184,1785 1189,1794 1195,1800 1203,1805 1212,1810 1220,1812 1230,1812 1240,1812 1248,1810 1256,1805 1265,1800 1271,1794 1276,1785 1281,1777 1283,1769 1283,1759 L 1283,1653 1283,1653 1283,1653 C 1283,1643 1281,1635 1276,1627 1271,1618 1265,1612 1256,1607 1248,1602 1240,1600 1230,1600 1220,1600 1212,1602 1203,1607 1195,1612 1189,1618 1184,1627 1179,1635 1177,1643 1177,1653 L 1177,1653 Z"/>
        <path fill="rgb(250,239,222)" stroke="none" d="M 2023,1653 L 2023,1759 2023,1759 C 2023,1769 2026,1777 2030,1785 2035,1794 2041,1800 2050,1805 2058,1810 2067,1812 2076,1812 2086,1812 2094,1810 2103,1805 2111,1800 2117,1794 2122,1785 2127,1777 2129,1769 2129,1759 L 2129,1653 2129,1653 2129,1653 C 2129,1643 2127,1635 2122,1627 2117,1618 2111,1612 2103,1607 2094,1602 2086,1600 2076,1600 2067,1600 2058,1602 2050,1607 2041,1612 2035,1618 2030,1627 2026,1635 2023,1643 2023,1653 L 2023,1653 Z"/>
        <path fill="rgb(250,239,222)" stroke="none" d="M 2341,1812 L 2341,1812 C 2351,1812 2359,1810 2367,1805 2376,1800 2382,1794 2387,1785 2391,1777 2394,1769 2394,1759 L 2394,1653 2394,1653 2394,1653 C 2394,1643 2391,1635 2387,1627 2382,1618 2376,1612 2367,1607 2359,1602 2351,1600 2341,1600 2331,1600 2323,1602 2314,1607 2306,1612 2300,1618 2295,1627 2290,1635 2288,1643 2288,1653 L 2288,1759 2288,1759 C 2288,1769 2290,1777 2295,1785 2300,1794 2306,1800 2314,1805 2323,1810 2331,1812 2341,1812 L 2341,1812 Z"/>
        <path fill="rgb(250,239,222)" stroke="none" d="M 2658,1759 L 2658,1653 2658,1653 2658,1653 C 2658,1643 2656,1635 2651,1627 2646,1618 2640,1612 2632,1607 2623,1602 2615,1600 2605,1600 2596,1600 2587,1602 2579,1607 2570,1612 2564,1618 2559,1627 2555,1635 2552,1643 2552,1653 L 2552,1759 2552,1759 C 2552,1769 2555,1777 2559,1785 2564,1794 2570,1800 2579,1805 2587,1810 2596,1812 2605,1812 2615,1812 2623,1810 2632,1805 2640,1800 2646,1794 2651,1785 2656,1777 2658,1769 2658,1759 L 2658,1759 Z"/>
        <path fill="rgb(250,239,222)" stroke="none" d="M 1547,965 C 1499,965 1457,977 1415,1001 1373,1025 1343,1055 1318,1098 1294,1140 1283,1181 1283,1230 1283,1240 1285,1248 1290,1256 1295,1265 1301,1271 1309,1276 1318,1281 1326,1283 1336,1283 1345,1283 1354,1281 1362,1276 1371,1271 1377,1265 1382,1256 1386,1248 1389,1240 1389,1230 1389,1201 1395,1176 1410,1151 1424,1125 1443,1107 1468,1092 1493,1078 1518,1071 1547,1071 L 1759,1071 C 1788,1071 1813,1078 1838,1092 1864,1107 1882,1125 1896,1151 1911,1176 1918,1201 1918,1230 L 1918,1380 C 1918,1380 1918,1380 1918,1380 1918,1413 1910,1441 1894,1470 1877,1498 1857,1519 1828,1535 1817,1541 1807,1546 1795,1550 1776,1556 1760,1563 1743,1573 1697,1600 1665,1632 1638,1678 1612,1723 1600,1768 1600,1820 1600,1820 1600,1820 1600,1820 L 1600,1970 C 1600,1980 1602,1989 1607,1997 1612,2005 1618,2011 1627,2016 1635,2021 1643,2023 1653,2023 1663,2023 1671,2021 1680,2016 1688,2011 1694,2005 1699,1997 1704,1989 1706,1980 1706,1970 L 1706,1820 C 1706,1820 1706,1820 1706,1820 1706,1787 1713,1759 1730,1731 1746,1702 1767,1682 1795,1665 1807,1659 1817,1654 1829,1650 1848,1644 1864,1637 1881,1627 1926,1601 1959,1568 1985,1523 2011,1477 2023,1433 2023,1380 2023,1380 2023,1380 2023,1380 L 2023,1230 C 2023,1181 2012,1140 1988,1098 1964,1055 1933,1025 1891,1001 1849,977 1808,965 1759,965 L 1547,965 Z"/>
        <path fill="rgb(141,108,159)" stroke="none" d="M 1047,2707 C 853,2595 714,2455 602,2261 490,2067 439,1877 439,1653 439,1429 490,1239 602,1045 714,851 853,711 1047,599 1241,487 1432,436 1656,436 1717,436 1770,440 1831,449 1838,450 1844,452 1850,456 1858,461 1865,467 1869,475 1874,484 1877,492 1877,502 1877,512 1874,520 1869,529 1865,537 1858,543 1850,548 1841,553 1833,555 1823,555 1820,555 1818,555 1816,555 1759,546 1710,543 1653,542 1449,543 1276,589 1100,691 922,793 795,921 693,1098 591,1275 544,1449 544,1653 544,1858 591,2031 693,2209 795,2386 922,2513 1100,2615 1277,2717 1450,2764 1655,2764 1859,2764 2033,2717 2210,2615 2388,2513 2515,2386 2617,2209 2719,2031 2766,1858 2766,1653 2766,1449 2719,1275 2617,1098 2542,969 2458,871 2341,779 2335,775 2331,770 2328,764 2323,756 2321,747 2321,738 2321,728 2323,720 2328,711 2333,703 2339,697 2347,692 2356,687 2364,685 2374,685 2383,685 2392,687 2400,692 2402,693 2404,694 2406,696 2535,797 2627,903 2709,1045 2821,1239 2872,1429 2872,1653 2872,1877 2821,2067 2709,2261 2597,2455 2457,2595 2263,2707 2069,2819 1879,2870 1655,2870 1654,2870 1654,2870 1653,2870 1430,2869 1240,2818 1047,2707 Z"/>
        <path fill="rgb(141,108,159)" stroke="none" d="M 2182,669 C 2173,669 2166,667 2158,663 2116,642 2080,626 2036,610 2033,609 2031,608 2028,607 2019,602 2013,596 2008,587 2004,579 2001,570 2001,561 2001,551 2004,543 2008,534 2013,526 2019,520 2028,515 2036,510 2045,508 2054,508 2061,508 2066,509 2073,511 2121,529 2161,546 2206,570 2207,570 2207,570 2208,570 2216,575 2222,581 2227,590 2232,598 2234,607 2234,616 2234,626 2232,634 2227,643 2222,651 2216,657 2208,662 2200,667 2192,669 2182,669 Z"/>
       </g>
      </g>
     </g>
    </g>
   </g>
  </g>
 </g>
</svg>